<?xml version="1.0" encoding="UTF-8"?>
<!DOCTYPE svg PUBLIC "-//W3C//DTD SVG 1.1//EN" "http://www.w3.org/Graphics/SVG/1.1/DTD/svg11.dtd">
<svg xmlns="http://www.w3.org/2000/svg" version="1.1" width="1400px" height="1296px" style="shape-rendering:geometricPrecision; text-rendering:geometricPrecision; image-rendering:optimizeQuality; fill-rule:evenodd; clip-rule:evenodd" xmlns:xlink="http://www.w3.org/1999/xlink">
<g><path style="opacity:0.972" fill="#fdfdfd" d="M 640.5,109.5 C 725.253,104.791 805.92,120.624 882.5,157C 911.102,169.993 938.435,184.993 964.5,202C 970.167,206.333 975.833,210.667 981.5,215C 1055.1,227.313 1120.77,256.647 1178.5,303C 1282.36,394.622 1314.53,507.122 1275,640.5C 1263.78,673.281 1248.11,703.615 1228,731.5C 1221.97,754.251 1215.14,776.751 1207.5,799C 1207.67,799.5 1207.83,800 1208,800.5C 1211.3,796.2 1214.96,792.2 1219,788.5C 1229.29,776.092 1239.45,763.592 1249.5,751C 1265.43,743.223 1276.93,747.389 1284,763.5C 1277.53,842.917 1246.37,910.751 1190.5,967C 1177.86,978.646 1164.36,989.146 1150,998.5C 1145.46,1021.61 1133.46,1039.61 1114,1052.5C 1107.43,1074.64 1097.43,1094.97 1084,1113.5C 1064.98,1135.59 1040.82,1146.76 1011.5,1147C 968.586,1183.31 919.586,1195.31 864.5,1183C 836.359,1174.19 815.526,1156.69 802,1130.5C 798.279,1123.33 794.946,1116 792,1108.5C 781.007,1101.01 771.507,1092.01 763.5,1081.5C 744.641,1105.88 730.474,1132.88 721,1162.5C 717.361,1166.73 712.861,1169.57 707.5,1171C 645.169,1179.81 585.002,1171.98 527,1147.5C 523.644,1151.66 520.144,1155.83 516.5,1160C 510.21,1163.28 503.543,1164.28 496.5,1163C 461.149,1147.83 427.482,1129.83 395.5,1109C 348.217,1074.38 312.717,1030.21 289,976.5C 192.753,916.447 135.086,830.114 116,717.5C 87.6557,549.56 132.322,404.56 250,282.5C 339.752,192.369 447.919,137.203 574.5,117C 596.565,113.715 618.565,111.215 640.5,109.5 Z"/></g>
<g><path style="opacity:1" fill="#020101" d="M 843.5,164.5 C 829.37,167.2 815.37,170.867 801.5,175.5C 691.622,144.419 583.289,149.252 476.5,190C 389.307,221.818 315.807,272.985 256,343.5C 209.773,401.299 179.106,466.632 164,539.5C 147.098,634.085 170.432,717.085 234,788.5C 282.399,840.445 342.232,868.945 413.5,874C 454.532,876.477 495.199,873.811 535.5,866C 536.672,865.581 537.672,864.915 538.5,864C 493.018,852.179 457.852,826.346 433,786.5C 406.043,742.687 399.376,696.021 413,646.5C 416.311,639.38 419.478,632.213 422.5,625C 416.852,611.253 412.352,597.086 409,582.5C 364.152,640.784 355.819,704.118 384,772.5C 393.386,792.547 405.886,810.38 421.5,826C 418.725,825.626 416.058,824.626 413.5,823C 396.604,812.313 382.437,798.813 371,782.5C 357.218,775.796 342.718,771.296 327.5,769C 312.531,767.812 297.531,767.145 282.5,767C 303.068,753.568 325.735,746.735 350.5,746.5C 347.239,735.883 344.073,725.216 341,714.5C 339.381,704.783 337.547,695.116 335.5,685.5C 304.045,673.398 271.711,669.898 238.5,675C 267.105,653.408 299.439,642.241 335.5,641.5C 336.558,622.226 341.558,604.06 350.5,587C 346.632,583.923 342.298,581.589 337.5,580C 306.844,568.835 275.177,563.835 242.5,565C 268.604,552.188 295.937,543.188 324.5,538C 351.55,535.401 378.384,536.567 405,541.5C 406.408,528.068 408.075,514.735 410,501.5C 336.165,492.834 266.665,506.168 201.5,541.5C 201.167,541 200.833,540.5 200.5,540C 209.804,510.223 223.97,483.057 243,458.5C 298.063,392.863 367.896,351.697 452.5,335C 506.136,327.875 558.803,332.041 610.5,347.5C 610.267,352.757 611.934,357.257 615.5,361C 644.382,366.175 670.716,377.175 694.5,394C 697.857,395.17 701.191,396.337 704.5,397.5C 735.073,422.908 757.739,454.074 772.5,491C 825.708,488.693 878.041,494.359 929.5,508C 977.529,521.919 1019.7,545.752 1056,579.5C 1081.66,468.782 1056.66,371.449 981,287.5C 965.135,270.123 947.968,254.456 929.5,240.5C 937.319,239.693 944.986,238.193 952.5,236C 955.303,232.865 957.303,229.365 958.5,225.5C 963.316,228.748 967.982,232.248 972.5,236C 1048.57,247.544 1115.57,278.211 1173.5,328C 1258.75,407.452 1287.25,503.952 1259,617.5C 1247.75,655.67 1230.41,690.67 1207,722.5C 1201.41,746.258 1194.41,769.591 1186,792.5C 1177.8,800.343 1168.97,807.343 1159.5,813.5C 1158.63,828.498 1157.8,843.498 1157,858.5C 1156.2,863.052 1155.37,867.552 1154.5,872C 1159.98,869.587 1165.31,866.587 1170.5,863C 1205.75,836.421 1236.25,805.254 1262,769.5C 1254.5,831.145 1231.16,885.811 1192,933.5C 1173.62,954.231 1152.62,971.565 1129,985.5C 1127.94,1003.39 1120.77,1018.23 1107.5,1030C 1102.9,1032.21 1098.73,1035.05 1095,1038.5C 1089.64,1058.87 1081.31,1077.87 1070,1095.5C 1052.85,1117.12 1030.35,1126.96 1002.5,1125C 971.144,1154.52 933.811,1168.19 890.5,1166C 859.809,1162.42 836.976,1147.25 822,1120.5C 817.417,1111.75 813.417,1102.75 810,1093.5C 789.78,1081.77 775.947,1064.77 768.5,1042.5C 737.798,1072.42 715.798,1107.92 702.5,1149C 657.383,1155.78 613.05,1152.44 569.5,1139C 551.948,1133.47 534.781,1126.97 518,1119.5C 516.739,1119.76 515.739,1120.43 515,1121.5C 511.57,1128.71 507.403,1135.37 502.5,1141.5C 475.572,1129.04 449.239,1115.54 423.5,1101C 370.55,1066.37 331.716,1019.87 307,961.5C 203.515,897.971 145.515,805.304 133,683.5C 118.343,563.264 146.343,454.264 217,356.5C 312.166,230.961 438.332,157.461 595.5,136C 680.858,123.243 763.525,132.743 843.5,164.5 Z"/></g>
<g><path style="opacity:1" fill="#c71510" d="M 801.5,175.5 C 743.417,203.062 693.083,241.062 650.5,289.5C 642.195,287.742 633.862,286.075 625.5,284.5C 638.775,269.377 654.108,256.877 671.5,247C 638.065,246.384 608.732,257.05 583.5,279C 559.433,279.172 535.433,280.172 511.5,282C 518.469,274.03 525.802,266.364 533.5,259C 524.154,259.225 515.487,261.892 507.5,267C 498.295,272.606 490.295,279.606 483.5,288C 451.767,295.2 421.767,306.866 393.5,323C 418.256,314.143 443.589,307.143 469.5,302C 523.635,294.049 576.968,297.549 629.5,312.5C 629.611,313.117 629.944,313.617 630.5,314C 622.304,324.338 615.637,335.505 610.5,347.5C 558.803,332.041 506.136,327.875 452.5,335C 367.896,351.697 298.063,392.863 243,458.5C 223.97,483.057 209.804,510.223 200.5,540C 200.833,540.5 201.167,541 201.5,541.5C 266.665,506.168 336.165,492.834 410,501.5C 408.075,514.735 406.408,528.068 405,541.5C 378.384,536.567 351.55,535.401 324.5,538C 295.937,543.188 268.604,552.188 242.5,565C 275.177,563.835 306.844,568.835 337.5,580C 342.298,581.589 346.632,583.923 350.5,587C 341.558,604.06 336.558,622.226 335.5,641.5C 299.439,642.241 267.105,653.408 238.5,675C 271.711,669.898 304.045,673.398 335.5,685.5C 337.547,695.116 339.381,704.783 341,714.5C 344.073,725.216 347.239,735.883 350.5,746.5C 325.735,746.735 303.068,753.568 282.5,767C 297.531,767.145 312.531,767.812 327.5,769C 342.718,771.296 357.218,775.796 371,782.5C 382.437,798.813 396.604,812.313 413.5,823C 416.058,824.626 418.725,825.626 421.5,826C 405.886,810.38 393.386,792.547 384,772.5C 355.819,704.118 364.152,640.784 409,582.5C 412.352,597.086 416.852,611.253 422.5,625C 419.478,632.213 416.311,639.38 413,646.5C 399.376,696.021 406.043,742.687 433,786.5C 457.852,826.346 493.018,852.179 538.5,864C 537.672,864.915 536.672,865.581 535.5,866C 495.199,873.811 454.532,876.477 413.5,874C 342.232,868.945 282.399,840.445 234,788.5C 170.432,717.085 147.098,634.085 164,539.5C 179.106,466.632 209.773,401.299 256,343.5C 315.807,272.985 389.307,221.818 476.5,190C 583.289,149.252 691.622,144.419 801.5,175.5 Z"/></g>
<g><path style="opacity:1" fill="#545353" d="M 843.5,164.5 C 852.226,164.161 860.893,164.661 869.5,166C 878.175,168.836 886.509,172.503 894.5,177C 913.833,189.667 933.167,202.333 952.5,215C 955.303,218.092 957.303,221.592 958.5,225.5C 957.303,229.365 955.303,232.865 952.5,236C 944.986,238.193 937.319,239.693 929.5,240.5C 894.507,248.004 862.507,262.004 833.5,282.5C 828.803,284.178 824.803,286.844 821.5,290.5C 818.766,291.705 816.099,293.205 813.5,295C 797.584,306.912 782.251,319.579 767.5,333C 765.393,334.264 764.393,336.097 764.5,338.5C 763.883,338.389 763.383,338.056 763,337.5C 752.461,347.629 742.628,358.296 733.5,369.5C 725.734,377.497 718.067,385.664 710.5,394C 707.981,394.586 705.981,395.753 704.5,397.5C 701.191,396.337 697.857,395.17 694.5,394C 670.716,377.175 644.382,366.175 615.5,361C 611.934,357.257 610.267,352.757 610.5,347.5C 615.637,335.505 622.304,324.338 630.5,314C 629.944,313.617 629.611,313.117 629.5,312.5C 630.675,312.719 631.675,312.386 632.5,311.5C 638.145,303.857 644.145,296.524 650.5,289.5C 693.083,241.062 743.417,203.062 801.5,175.5C 815.37,170.867 829.37,167.2 843.5,164.5 Z"/></g>
<g><path style="opacity:1" fill="#000000" d="M 845.5,177.5 C 854.821,176.627 863.821,177.793 872.5,181C 878.5,184 884.5,187 890.5,190C 908.167,201.667 925.833,213.333 943.5,225C 903.618,230.181 866.951,243.848 833.5,266C 797.796,288.681 765.296,315.514 736,346.5C 724.798,358.034 713.965,369.867 703.5,382C 702.5,382.667 701.5,382.667 700.5,382C 677.766,365.363 652.432,354.863 624.5,350.5C 627.938,341.626 632.438,333.292 638,325.5C 676.47,275.016 722.97,233.849 777.5,202C 798.781,189.851 821.448,181.684 845.5,177.5 Z"/></g>
<g><path style="opacity:1" fill="#c71510" d="M 929.5,240.5 C 947.968,254.456 965.135,270.123 981,287.5C 1056.66,371.449 1081.66,468.782 1056,579.5C 1019.7,545.752 977.529,521.919 929.5,508C 878.041,494.359 825.708,488.693 772.5,491C 757.739,454.074 735.073,422.908 704.5,397.5C 705.981,395.753 707.981,394.586 710.5,394C 718.067,385.664 725.734,377.497 733.5,369.5C 758.527,389.684 777.694,414.351 791,443.5C 812.439,426.117 836.939,415.284 864.5,411C 874.192,409.864 883.859,408.531 893.5,407C 922.165,405.456 950.832,405.122 979.5,406C 923.349,369.962 862.016,354.962 795.5,361C 785.845,352.512 775.512,345.012 764.5,338.5C 764.393,336.097 765.393,334.264 767.5,333C 782.251,319.579 797.584,306.912 813.5,295C 816.099,293.205 818.766,291.705 821.5,290.5C 828.316,289.236 834.983,287.403 841.5,285C 838.798,284.16 836.132,283.327 833.5,282.5C 862.507,262.004 894.507,248.004 929.5,240.5 Z"/></g>
<g><path style="opacity:1" fill="#050000" d="M 650.5,289.5 C 644.145,296.524 638.145,303.857 632.5,311.5C 631.675,312.386 630.675,312.719 629.5,312.5C 576.968,297.549 523.635,294.049 469.5,302C 443.589,307.143 418.256,314.143 393.5,323C 421.767,306.866 451.767,295.2 483.5,288C 490.295,279.606 498.295,272.606 507.5,267C 515.487,261.892 524.154,259.225 533.5,259C 525.802,266.364 518.469,274.03 511.5,282C 535.433,280.172 559.433,279.172 583.5,279C 608.732,257.05 638.065,246.384 671.5,247C 654.108,256.877 638.775,269.377 625.5,284.5C 633.862,286.075 642.195,287.742 650.5,289.5 Z"/></g>
<g><path style="opacity:1" fill="#c71510" d="M 996.5,262.5 C 1072.41,277.378 1136.24,313.711 1188,371.5C 1257.03,457.766 1269.37,551.766 1225,653.5C 1219.01,666.81 1212.01,679.477 1204,691.5C 1196.4,678.236 1188.4,665.236 1180,652.5C 1172.9,606.674 1158.9,563.008 1138,521.5C 1133.4,513.234 1128.4,505.234 1123,497.5C 1142.78,423.5 1122.28,363.334 1061.5,317C 1052.02,310.205 1042.02,304.205 1031.5,299C 1020.7,286.028 1009.03,273.861 996.5,262.5 Z"/></g>
<g><path style="opacity:1" fill="#140707" d="M 833.5,282.5 C 836.132,283.327 838.798,284.16 841.5,285C 834.983,287.403 828.316,289.236 821.5,290.5C 824.803,286.844 828.803,284.178 833.5,282.5 Z"/></g>
<g><path style="opacity:1" fill="#020000" d="M 764.5,338.5 C 775.512,345.012 785.845,352.512 795.5,361C 862.016,354.962 923.349,369.962 979.5,406C 950.832,405.122 922.165,405.456 893.5,407C 883.859,408.531 874.192,409.864 864.5,411C 836.939,415.284 812.439,426.117 791,443.5C 777.694,414.351 758.527,389.684 733.5,369.5C 742.628,358.296 752.461,347.629 763,337.5C 763.383,338.056 763.883,338.389 764.5,338.5 Z"/></g>
<g><path style="opacity:1" fill="#535353" d="M 575.5,371.5 C 655.871,369.244 713.704,403.911 749,475.5C 770.291,529.051 767.624,581.384 741,632.5C 700.961,697.102 642.794,725.935 566.5,719C 491.479,704.314 443.646,660.147 423,586.5C 409.339,516.149 429.172,457.315 482.5,410C 509.851,388.324 540.851,375.49 575.5,371.5 Z"/></g>
<g><path style="opacity:1" fill="#010000" d="M 577.5,386.5 C 656.447,385.694 710.614,421.694 740,494.5C 755.62,547.226 747.953,596.226 717,641.5C 673.584,694.974 618.084,714.474 550.5,700C 481.177,677.003 442.344,629.17 434,556.5C 432.197,491.927 458.364,442.427 512.5,408C 532.826,396.345 554.492,389.179 577.5,386.5 Z"/></g>
<g><path style="opacity:1" fill="#c51510" d="M 575.5,429.5 C 638.146,427.38 680.646,455.38 703,513.5C 715.839,562.987 704.006,605.487 667.5,641C 629.341,671.47 587.341,678.137 541.5,661C 489.94,635.744 465.774,594.244 469,536.5C 476.153,488.691 501.986,455.525 546.5,437C 556.119,433.784 565.786,431.284 575.5,429.5 Z"/></g>
<g><path style="opacity:1" fill="#010000" d="M 574.5,450.5 C 624.376,447.511 659.876,468.511 681,513.5C 695.563,558.322 685.396,596.488 650.5,628C 616.223,652.906 579.89,656.24 541.5,638C 503.49,614.482 486.324,580.315 490,535.5C 497.158,497.344 518.658,470.844 554.5,456C 561.391,454.447 568.057,452.614 574.5,450.5 Z"/></g>
<g><path style="opacity:1" fill="#fefefe" d="M 1174.5,766.5 C 1163.84,752.014 1150.51,740.514 1134.5,732C 1128,731.188 1125.83,734.021 1128,740.5C 1134.43,762.4 1138.26,784.734 1139.5,807.5C 1143.44,851.777 1134.94,893.444 1114,932.5C 1111.93,937.379 1110.26,942.379 1109,947.5C 1108.79,963.171 1108.79,978.838 1109,994.5C 1105.91,1009.6 1097.07,1019.76 1082.5,1025C 1071.13,1029.85 1059.46,1033.85 1047.5,1037C 1044.77,1037.82 1042.11,1037.65 1039.5,1036.5C 1031.77,1022.59 1021.77,1010.42 1009.5,1000C 1003.39,995.524 997.557,990.691 992,985.5C 989.16,977.34 985.826,969.34 982,961.5C 979.333,957.5 976,954.167 972,951.5C 968.996,962.845 964.996,973.845 960,984.5C 958.889,989.611 959.889,994.278 963,998.5C 968.571,1004.74 974.738,1010.24 981.5,1015C 998.853,1030.87 1011.19,1050.04 1018.5,1072.5C 1036.04,1061.88 1054.37,1053.88 1073.5,1048.5C 1068.18,1063.99 1060.18,1077.82 1049.5,1090C 1035.84,1101.33 1020.18,1106 1002.5,1104C 1007.91,1098.12 1011.24,1091.28 1012.5,1083.5C 1010.35,1083.37 1008.35,1083.87 1006.5,1085C 992.104,1101.43 976.438,1102.76 959.5,1089C 951.467,1081.64 944.967,1073.14 940,1063.5C 927.509,1037.52 915.843,1011.19 905,984.5C 900.537,972.371 892.37,963.871 880.5,959C 871.88,957.724 863.88,959.391 856.5,964C 842.111,973.056 829.611,984.223 819,997.5C 816.211,1002.53 814.211,1007.87 813,1013.5C 812.121,1024.55 812.454,1035.55 814,1046.5C 815.808,1048.4 817.975,1048.9 820.5,1048C 821.867,1045.33 822.867,1042.49 823.5,1039.5C 858.372,1050.73 891.372,1065.9 922.5,1085C 931.833,1093 941.167,1101 950.5,1109C 957.847,1113.17 965.514,1116.67 973.5,1119.5C 946.279,1141.08 915.279,1149.92 880.5,1146C 866.042,1143.52 854.542,1136.36 846,1124.5C 840.868,1117.07 836.368,1109.24 832.5,1101C 838.284,1101.86 843.951,1103.02 849.5,1104.5C 854.293,1120.13 864.626,1129.63 880.5,1133C 890.545,1133.83 900.545,1133.5 910.5,1132C 915.417,1130.92 920.084,1129.25 924.5,1127C 916.878,1123.52 909.545,1119.52 902.5,1115C 896.591,1109.6 891.258,1103.76 886.5,1097.5C 885.883,1095.77 884.883,1094.27 883.5,1093C 878.322,1090.61 872.988,1088.61 867.5,1087C 851.765,1083.65 836.099,1079.99 820.5,1076C 797.261,1063.2 784.594,1043.53 782.5,1017C 781.946,1001.83 786.28,988.331 795.5,976.5C 808.852,981.769 820.685,979.436 831,969.5C 836.711,960.414 841.045,950.747 844,940.5C 844.657,933.126 842.824,926.46 838.5,920.5C 842.209,894.556 840.876,868.89 834.5,843.5C 834.833,842.833 835.167,842.167 835.5,841.5C 860.821,856.644 883.321,875.31 903,897.5C 906.491,869.332 909.324,840.998 911.5,812.5C 914.872,813.401 918.205,813.401 921.5,812.5C 923.899,804.886 924.899,797.22 924.5,789.5C 900.37,785.02 879.537,774.353 862,757.5C 861.277,765.542 861.61,773.542 863,781.5C 865.865,795.282 868.865,808.949 872,822.5C 855.117,806.778 836.95,792.778 817.5,780.5C 806.669,784.497 796.836,790.163 788,797.5C 793.613,821.847 797.279,846.513 799,871.5C 781.232,851.886 760.732,835.886 737.5,823.5C 752.945,786.72 761.945,748.386 764.5,708.5C 765.648,704.019 765.815,699.352 765,694.5C 764.283,695.044 763.783,695.711 763.5,696.5C 748.22,723.616 730.387,748.949 710,772.5C 704.965,777.703 699.798,782.703 694.5,787.5C 676.47,768.782 664.137,746.782 657.5,721.5C 712.212,698.457 748.878,658.791 767.5,602.5C 783.105,606.818 798.772,610.985 814.5,615C 829.55,618.722 840.384,627.555 847,641.5C 849.793,652.465 852.46,663.465 855,674.5C 856.504,680.855 858.671,686.855 861.5,692.5C 865.337,712.498 876.003,727.665 893.5,738C 913.751,748.988 935.418,754.321 958.5,754C 964.32,766.645 971.653,778.312 980.5,789C 981.793,789.49 983.127,789.657 984.5,789.5C 982.554,763.272 977.721,737.605 970,712.5C 960.745,702.949 950.579,694.449 939.5,687C 929.535,679.372 921.368,670.206 915,659.5C 908.139,644.583 901.472,629.583 895,614.5C 887.119,602.449 877.619,591.782 866.5,582.5C 865.463,580.262 865.297,577.929 866,575.5C 869.137,573.014 872.637,571.181 876.5,570C 927.843,560.575 977.843,565.408 1026.5,584.5C 1041.09,593.237 1054.42,603.737 1066.5,616C 1067.45,616.617 1068.28,616.451 1069,615.5C 1083.52,573.057 1089.86,529.39 1088,484.5C 1106.06,503.593 1120.39,525.259 1131,549.5C 1144.74,583.798 1154.74,619.131 1161,655.5C 1171.06,671.237 1180.73,687.237 1190,703.5C 1190.67,706.5 1190.67,709.5 1190,712.5C 1185.45,730.682 1180.29,748.682 1174.5,766.5 Z"/></g>
<g><path style="opacity:1" fill="#fcfbfb" d="M 577.5,509.5 C 575.5,509.5 573.5,509.5 571.5,509.5C 571.5,513.833 571.5,518.167 571.5,522.5C 571.5,527.167 571.5,531.833 571.5,536.5C 575.167,536.5 578.833,536.5 582.5,536.5C 590.316,537.492 598.316,537.826 606.5,537.5C 606.5,530.167 606.5,522.833 606.5,515.5C 606.5,513.833 606.5,512.167 606.5,510.5C 603.881,510.768 601.381,510.435 599,509.5C 598.333,504.167 598.333,498.833 599,493.5C 599.5,493 600,492.5 600.5,492C 613.17,491.794 625.837,492.127 638.5,493C 639.639,498.416 639.806,503.916 639,509.5C 638.617,510.056 638.117,510.389 637.5,510.5C 635.167,510.5 632.833,510.5 630.5,510.5C 630.5,518.167 630.5,525.833 630.5,533.5C 630.543,552.175 630.209,570.842 629.5,589.5C 632.365,589.055 634.865,589.722 637,591.5C 637.667,596.833 637.667,602.167 637,607.5C 624.242,608.655 611.409,608.822 598.5,608C 598,607.5 597.5,607 597,606.5C 596.333,601.167 596.333,595.833 597,590.5C 597.383,589.944 597.883,589.611 598.5,589.5C 600.833,589.5 603.167,589.5 605.5,589.5C 605.5,581.5 605.5,573.5 605.5,565.5C 605.5,563.167 605.5,560.833 605.5,558.5C 598.167,558.5 590.833,558.5 583.5,558.5C 579.366,557.515 575.032,557.182 570.5,557.5C 570.5,563.833 570.5,570.167 570.5,576.5C 570.5,580.5 570.5,584.5 570.5,588.5C 572.792,588.244 574.959,588.577 577,589.5C 577.667,595.167 577.667,600.833 577,606.5C 564.229,607.821 551.396,607.821 538.5,606.5C 537.379,600.886 537.212,595.22 538,589.5C 540.135,587.722 542.635,587.055 545.5,587.5C 545.628,565.496 545.962,543.496 546.5,521.5C 547.485,517.366 547.818,513.032 547.5,508.5C 545.5,508.5 543.5,508.5 541.5,508.5C 540.883,508.389 540.383,508.056 540,507.5C 539.194,501.916 539.361,496.416 540.5,491C 552.833,490.333 565.167,490.333 577.5,491C 578.416,491.374 579.25,491.874 580,492.5C 580.667,497.5 580.667,502.5 580,507.5C 579.583,508.756 578.75,509.423 577.5,509.5 Z"/></g>
<g><path style="opacity:1" fill="#a58483" d="M 577.5,509.5 C 576.081,510.451 574.415,510.784 572.5,510.5C 572.817,514.702 572.483,518.702 571.5,522.5C 571.5,518.167 571.5,513.833 571.5,509.5C 573.5,509.5 575.5,509.5 577.5,509.5 Z"/></g>
<g><path style="opacity:1" fill="#a28281" d="M 541.5,508.5 C 543.5,508.5 545.5,508.5 547.5,508.5C 547.818,513.032 547.485,517.366 546.5,521.5C 546.5,517.5 546.5,513.5 546.5,509.5C 544.585,509.784 542.919,509.451 541.5,508.5 Z"/></g>
<g><path style="opacity:1" fill="#c8abaa" d="M 637.5,510.5 C 635.735,511.461 633.735,511.795 631.5,511.5C 631.825,519.019 631.492,526.352 630.5,533.5C 630.5,525.833 630.5,518.167 630.5,510.5C 632.833,510.5 635.167,510.5 637.5,510.5 Z"/></g>
<g><path style="opacity:1" fill="#a5a6a8" d="M 1026.5,584.5 C 977.843,565.408 927.843,560.575 876.5,570C 872.637,571.181 869.137,573.014 866,575.5C 865.297,577.929 865.463,580.262 866.5,582.5C 865.903,582.735 865.57,583.235 865.5,584C 866.472,586.111 867.305,588.278 868,590.5C 873.761,599.016 878.761,608.016 883,617.5C 885.165,622.658 886.165,627.991 886,633.5C 876.922,640.248 869.588,648.581 864,658.5C 860.444,669.622 859.61,680.956 861.5,692.5C 858.671,686.855 856.504,680.855 855,674.5C 852.46,663.465 849.793,652.465 847,641.5C 840.384,627.555 829.55,618.722 814.5,615C 798.772,610.985 783.105,606.818 767.5,602.5C 774.112,579.001 777.446,555.001 777.5,530.5C 854.147,519.872 927.147,531.706 996.5,566C 1007.07,571.44 1017.07,577.606 1026.5,584.5 Z"/></g>
<g><path style="opacity:1" fill="#937675" d="M 606.5,515.5 C 606.5,522.833 606.5,530.167 606.5,537.5C 598.316,537.826 590.316,537.492 582.5,536.5C 590.167,536.5 597.833,536.5 605.5,536.5C 605.175,529.313 605.509,522.313 606.5,515.5 Z"/></g>
<g><path style="opacity:1" fill="#af8f8e" d="M 583.5,558.5 C 579.5,558.5 575.5,558.5 571.5,558.5C 571.823,564.69 571.49,570.69 570.5,576.5C 570.5,570.167 570.5,563.833 570.5,557.5C 575.032,557.182 579.366,557.515 583.5,558.5 Z"/></g>
<g><path style="opacity:1" fill="#030303" d="M 866.5,582.5 C 877.619,591.782 887.119,602.449 895,614.5C 901.472,629.583 908.139,644.583 915,659.5C 921.368,670.206 929.535,679.372 939.5,687C 950.579,694.449 960.745,702.949 970,712.5C 977.721,737.605 982.554,763.272 984.5,789.5C 983.127,789.657 981.793,789.49 980.5,789C 971.653,778.312 964.32,766.645 958.5,754C 935.418,754.321 913.751,748.988 893.5,738C 876.003,727.665 865.337,712.498 861.5,692.5C 859.61,680.956 860.444,669.622 864,658.5C 869.588,648.581 876.922,640.248 886,633.5C 886.165,627.991 885.165,622.658 883,617.5C 878.761,608.016 873.761,599.016 868,590.5C 867.305,588.278 866.472,586.111 865.5,584C 865.57,583.235 865.903,582.735 866.5,582.5 Z"/></g>
<g><path style="opacity:1" fill="#af908f" d="M 605.5,565.5 C 605.5,573.5 605.5,581.5 605.5,589.5C 603.167,589.5 600.833,589.5 598.5,589.5C 600.265,588.539 602.265,588.205 604.5,588.5C 604.175,580.648 604.508,572.982 605.5,565.5 Z"/></g>
<g><path style="opacity:1" fill="#a1a2a4" d="M 892.5,651.5 C 894.017,651.511 895.184,652.177 896,653.5C 897.167,655.333 898.333,657.167 899.5,659C 886.373,670.59 881.206,685.09 884,702.5C 885.045,708.669 886.378,714.669 888,720.5C 868.817,700.176 867.65,679.009 884.5,657C 887.07,654.913 889.737,653.08 892.5,651.5 Z"/></g>
<g><path style="opacity:1" fill="#a4a5a7" d="M 494.5,706.5 C 493.448,706.351 492.448,706.517 491.5,707C 476.333,719.5 462.5,733.333 450,748.5C 448.441,750.217 447.608,752.217 447.5,754.5C 446.361,750.699 445.528,746.699 445,742.5C 442.81,723.342 444.81,704.676 451,686.5C 452.944,682.89 455.277,679.557 458,676.5C 469.225,687.833 481.392,697.833 494.5,706.5 Z"/></g>
<g><path style="opacity:1" fill="#f8f8f8" d="M 921.5,691.5 C 925.743,697.084 930.409,702.418 935.5,707.5C 928.314,716.698 929.314,724.864 938.5,732C 944.817,734.336 950.65,733.502 956,729.5C 957.783,733.298 958.616,737.298 958.5,741.5C 940.758,744.753 925.925,739.753 914,726.5C 907.375,712.782 909.875,701.116 921.5,691.5 Z"/></g>
<g><path style="opacity:1" fill="#909090" d="M 764.5,708.5 C 764.817,704.298 764.483,700.298 763.5,696.5C 763.783,695.711 764.283,695.044 765,694.5C 765.815,699.352 765.648,704.019 764.5,708.5 Z"/></g>
<g><path style="opacity:1" fill="#c61510" d="M 155.5,698.5 C 187.197,781.032 243.863,839.532 325.5,874C 378.634,892.648 433.301,898.648 489.5,892C 549.558,885.535 606.225,868.201 659.5,840C 690.154,821.348 715.654,797.181 736,767.5C 723.291,827.172 692.458,875.006 643.5,911C 595.249,946.782 541.249,968.782 481.5,977C 471.536,978.423 461.536,978.756 451.5,978C 479.964,964.607 506.297,947.94 530.5,928C 475.689,945.957 419.356,952.29 361.5,947C 340.372,944.841 319.706,940.508 299.5,934C 216.79,877.143 168.79,798.643 155.5,698.5 Z"/></g>
<g><path style="opacity:1" fill="#fefefe" d="M 494.5,706.5 C 506.256,713.547 518.589,719.213 531.5,723.5C 534.092,764.119 547.259,800.786 571,833.5C 574.465,837.967 578.298,842.133 582.5,846C 581.944,846.383 581.611,846.883 581.5,847.5C 533.509,853.083 495.342,836.416 467,797.5C 457.786,784.405 451.286,770.071 447.5,754.5C 447.608,752.217 448.441,750.217 450,748.5C 462.5,733.333 476.333,719.5 491.5,707C 492.448,706.517 493.448,706.351 494.5,706.5 Z"/></g>
<g><path style="opacity:1" fill="#a7a8aa" d="M 1065.5,712.5 C 1067.39,712.297 1068.89,712.963 1070,714.5C 1070.67,716.833 1070.67,719.167 1070,721.5C 1055.25,751.746 1032.09,772.746 1000.5,784.5C 998.222,766.272 995.555,748.105 992.5,730C 992.833,729.5 993.167,729 993.5,728.5C 998.187,730.931 1003.19,731.931 1008.5,731.5C 1029.1,729.743 1048.1,723.41 1065.5,712.5 Z"/></g>
<g><path style="opacity:1" fill="#a5a6a8" d="M 657.5,721.5 C 664.137,746.782 676.47,768.782 694.5,787.5C 680.669,802.872 664.669,815.039 646.5,824C 619.627,799.421 604.627,768.921 601.5,732.5C 620.7,731.365 639.366,727.698 657.5,721.5 Z"/></g>
<g><path style="opacity:1" fill="#a5a6a8" d="M 531.5,723.5 C 542.955,726.946 554.621,729.613 566.5,731.5C 570.985,773.175 587.651,809.008 616.5,839C 605.076,842.917 593.409,845.751 581.5,847.5C 581.611,846.883 581.944,846.383 582.5,846C 578.298,842.133 574.465,837.967 571,833.5C 547.259,800.786 534.092,764.119 531.5,723.5 Z"/></g>
<g><path style="opacity:1" fill="#a5a6a8" d="M 1174.5,766.5 C 1172.48,773.053 1169.98,779.386 1167,785.5C 1160.61,790.948 1153.77,795.781 1146.5,800C 1143.93,802.396 1141.6,804.896 1139.5,807.5C 1138.26,784.734 1134.43,762.4 1128,740.5C 1125.83,734.021 1128,731.188 1134.5,732C 1150.51,740.514 1163.84,752.014 1174.5,766.5 Z"/></g>
<g><path style="opacity:1" fill="#a6a7a9" d="M 838.5,920.5 C 836.37,918.873 834.37,917.04 832.5,915C 811.167,904 789.833,893 768.5,882C 757.581,877.785 747.581,879.285 738.5,886.5C 729.724,880.27 720.391,874.77 710.5,870C 720.929,855.306 729.929,839.806 737.5,823.5C 760.732,835.886 781.232,851.886 799,871.5C 797.279,846.513 793.613,821.847 788,797.5C 796.836,790.163 806.669,784.497 817.5,780.5C 836.95,792.778 855.117,806.778 872,822.5C 868.865,808.949 865.865,795.282 863,781.5C 861.61,773.542 861.277,765.542 862,757.5C 879.537,774.353 900.37,785.02 924.5,789.5C 924.899,797.22 923.899,804.886 921.5,812.5C 918.205,813.401 914.872,813.401 911.5,812.5C 909.324,840.998 906.491,869.332 903,897.5C 883.321,875.31 860.821,856.644 835.5,841.5C 835.167,842.167 834.833,842.833 834.5,843.5C 840.876,868.89 842.209,894.556 838.5,920.5 Z"/></g>
<g><path style="opacity:1" fill="#c51510" d="M 1225.5,837.5 C 1212.58,875.797 1191.58,909.297 1162.5,938C 1151.62,947.354 1140.12,955.854 1128,963.5C 1127.28,957.775 1127.62,952.109 1129,946.5C 1136.34,930.83 1142.84,914.83 1148.5,898.5C 1178.62,883.7 1204.29,863.367 1225.5,837.5 Z"/></g>
<g><path style="opacity:1" fill="#a8a9ab" d="M 977.5,871.5 C 978.822,871.33 979.989,871.663 981,872.5C 990.38,897.326 993.714,922.993 991,949.5C 986.975,942.642 981.475,937.308 974.5,933.5C 974.167,931.5 973.833,929.5 973.5,927.5C 975.938,908.925 977.272,890.259 977.5,871.5 Z"/></g>
<g><path style="opacity:1" fill="#555555" d="M 838.5,920.5 C 842.824,926.46 844.657,933.126 844,940.5C 841.045,950.747 836.711,960.414 831,969.5C 820.685,979.436 808.852,981.769 795.5,976.5C 788.616,971.898 781.616,968.231 774.5,965.5C 762.367,958.725 750.034,952.225 737.5,946C 725.743,938.233 721.077,927.4 723.5,913.5C 727.218,903.726 732.218,894.726 738.5,886.5C 747.581,879.285 757.581,877.785 768.5,882C 789.833,893 811.167,904 832.5,915C 834.37,917.04 836.37,918.873 838.5,920.5 Z"/></g>
<g><path style="opacity:1" fill="#000000" d="M 752.5,892.5 C 756.582,892.344 760.582,892.844 764.5,894C 782.5,903.333 800.5,912.667 818.5,922C 824.272,924.106 828.438,927.939 831,933.5C 830.438,944.481 826.605,954.314 819.5,963C 814.145,966.575 808.478,967.242 802.5,965C 783.833,955.333 765.167,945.667 746.5,936C 737.871,932.241 734.371,925.741 736,916.5C 739.078,910.009 742.412,903.675 746,897.5C 748.326,895.934 750.492,894.268 752.5,892.5 Z"/></g>
<g><path style="opacity:1" fill="#a6a7a9" d="M 723.5,913.5 C 721.077,927.4 725.743,938.233 737.5,946C 750.034,952.225 762.367,958.725 774.5,965.5C 771.702,971.77 768.868,978.104 766,984.5C 764.975,992.284 764.142,999.951 763.5,1007.5C 758.21,991.256 750.044,976.589 739,963.5C 722.907,982.245 703.407,996.412 680.5,1006C 666.56,1010.31 653.227,1015.98 640.5,1023C 623.077,1035.33 612.91,1052.16 610,1073.5C 608.379,1092.53 610.212,1111.19 615.5,1129.5C 612.813,1129.66 610.146,1129.5 607.5,1129C 583.382,1123.52 560.048,1115.85 537.5,1106C 543.006,1086.49 551.839,1068.66 564,1052.5C 577.13,1035.7 591.963,1020.54 608.5,1007C 602.844,1009 597.51,1011.83 592.5,1015.5C 553.455,1028.21 513.122,1036.04 471.5,1039C 437.758,1040.84 404.591,1037.34 372,1028.5C 371.235,1028.57 370.735,1028.9 370.5,1029.5C 356.582,1012.52 344.248,994.358 333.5,975C 409.009,1004.31 485.009,1004.97 561.5,977C 604.334,960.6 643.001,937.6 677.5,908C 681.535,904.3 685.202,900.3 688.5,896C 690.553,895.675 692.553,896.009 694.5,897C 704.519,902.006 714.186,907.506 723.5,913.5 Z"/></g>
<g><path style="opacity:1" fill="#fefefe" d="M 763.5,1007.5 C 763.827,1012.54 763.494,1017.54 762.5,1022.5C 746.668,1035.83 733.168,1051.16 722,1068.5C 708.099,1088.13 696.932,1109.3 688.5,1132C 672.53,1133.51 656.53,1133.85 640.5,1133C 631.876,1132.87 623.543,1131.7 615.5,1129.5C 610.212,1111.19 608.379,1092.53 610,1073.5C 612.91,1052.16 623.077,1035.33 640.5,1023C 653.227,1015.98 666.56,1010.31 680.5,1006C 703.407,996.412 722.907,982.245 739,963.5C 750.044,976.589 758.21,991.256 763.5,1007.5 Z"/></g>
<g><path style="opacity:1" fill="#fafafa" d="M 859.5,982.5 C 866.574,982.161 873.574,982.661 880.5,984C 883.902,985.4 886.736,987.567 889,990.5C 902.945,1010.72 913.945,1032.39 922,1055.5C 915,1049.83 908,1044.17 901,1038.5C 900.57,1035.81 900.737,1033.14 901.5,1030.5C 898.159,1031.01 894.826,1031.17 891.5,1031C 886.721,1027.52 882.221,1023.69 878,1019.5C 877.617,1016.53 878.117,1013.69 879.5,1011C 875.051,1011.2 870.718,1011.87 866.5,1013C 861.212,1009.77 856.378,1005.94 852,1001.5C 851.179,995.452 852.346,989.786 855.5,984.5C 856.949,983.828 858.282,983.161 859.5,982.5 Z"/></g>
<g><path style="opacity:1" fill="#f5f5f5" d="M 837.5,1005.5 C 839.199,1005.34 840.866,1005.51 842.5,1006C 846.974,1008.97 851.307,1012.14 855.5,1015.5C 856.325,1019.12 856.825,1022.79 857,1026.5C 858.896,1024.47 861.063,1022.8 863.5,1021.5C 868.035,1024.53 872.702,1027.37 877.5,1030C 878.113,1032.15 878.779,1034.31 879.5,1036.5C 881.432,1035.48 883.432,1035.31 885.5,1036C 890.118,1038.95 894.452,1042.28 898.5,1046C 875.61,1038.37 852.61,1030.7 829.5,1023C 827.46,1014.97 830.127,1009.14 837.5,1005.5 Z"/></g>
<g><path style="opacity:1" fill="#fdfdfd" d="M 592.5,1015.5 C 550.62,1039.21 518.787,1072.55 497,1115.5C 496.439,1116.02 495.772,1116.36 495,1116.5C 457.959,1101.41 424.459,1080.91 394.5,1055C 385.929,1046.93 377.929,1038.43 370.5,1029.5C 370.735,1028.9 371.235,1028.57 372,1028.5C 404.591,1037.34 437.758,1040.84 471.5,1039C 513.122,1036.04 553.455,1028.21 592.5,1015.5 Z"/></g>
<g><path style="opacity:1" fill="#a6a7a9" d="M 886.5,1097.5 C 891.258,1103.76 896.591,1109.6 902.5,1115C 909.545,1119.52 916.878,1123.52 924.5,1127C 920.084,1129.25 915.417,1130.92 910.5,1132C 900.545,1133.5 890.545,1133.83 880.5,1133C 864.626,1129.63 854.293,1120.13 849.5,1104.5C 860.708,1106.38 871.708,1105.54 882.5,1102C 884.644,1101.21 885.977,1099.71 886.5,1097.5 Z"/></g>
</svg>
